<?xml version="1.0" encoding="utf-8"?>
<!-- Generator: Adobe Illustrator 23.0.5, SVG Export Plug-In . SVG Version: 6.00 Build 0)  -->
<svg version="1.1" xmlns="http://www.w3.org/2000/svg" xmlns:xlink="http://www.w3.org/1999/xlink" x="0px" y="0px"
	 viewBox="158 154 236 62" style="enable-background:new 0 0 550 370;" xml:space="preserve">
<style type="text/css">
	g { fill: rgb(234 88 12) }
	.st0{display:none;}
	.st1{display:inline;fill:none;stroke:#fff;stroke-width:5.344;stroke-miterlimit:10;}
	.st2{display:inline;}
	.st3{font-family:'Kaleko105-Bold';}
	.st4{font-size:54.9089px;}
	.st5{fill:none;stroke:#fff;stroke-width:2.6098;stroke-miterlimit:10;}
</style>
<g id="Layer_1" class="st0">
	<path class="st1" d="M275,173.88"/>
	<path class="st1" d="M314.26,150.57c-2.45,19.42-19.02,34.43-39.1,34.43c-21.77,0-39.41-17.65-39.41-39.41s17.65-39.41,39.41-39.41
		c18.36,0,33.79,12.56,38.17,29.55l-17.07,9.86l-33.57,19.38v-38.76l22.97,13.26"/>
	<text transform="matrix(1 0 0 1 334.3531 164.2891)" class="st2 st3 st4">MuzBox</text>
</g>
<g id="Layer_2">
	<g>
		<path class="st5" d="M215.79,185"/>
	</g>
	<g>
		<path d="M188.4,215.1c-16.6,0-30.1-13.5-30.1-30.1s13.5-30.1,30.1-30.1c13.74,0,25.73,9.28,29.15,22.57l0.36,1.41l-40.34,23.29
			v-34.34l19.29,11.14l-3.82,2.21l-11.65-6.73v21.1l32.06-18.51c-3.44-10.86-13.54-18.32-25.05-18.32
			c-14.49,0-26.27,11.79-26.27,26.27c0,14.49,11.79,26.27,26.27,26.27c12.19,0,22.67-8.4,25.51-19.97l4.35-2.51
			C216.37,203.79,203.53,215.1,188.4,215.1z"/>
	</g>
	<g>
		<path d="M248.01,182.04l9.36-12.1h5.56v29.45h-5.56v-20.73h-0.13l-9.22,12.12l-9.22-12.12h-0.12v20.73h-5.58v-29.45h5.58
			L248.01,182.04z"/>
		<path d="M283.16,176.65h5.58v22.74h-5.58v-3.49h-0.08c-0.6,1.2-1.46,2.2-2.59,2.98c-1.12,0.79-2.46,1.18-4.01,1.18
			c-2.62,0-4.75-0.9-6.38-2.69c-1.64-1.8-2.45-4.12-2.45-6.97v-13.75h5.58v13.36c0,1.39,0.48,2.58,1.45,3.56
			c0.97,0.98,2.13,1.47,3.5,1.47c1.39,0,2.57-0.49,3.54-1.48c0.96-0.98,1.45-2.17,1.45-3.55V176.65z"/>
		<path d="M311.97,181.6l-11.91,12.77v0.08h11.91v4.95h-19.4v-4.95l11.93-12.77v-0.08h-11.93v-4.95h19.4V181.6z"/>
		<path d="M339.12,190.7c0,2.62-0.9,4.72-2.7,6.31c-1.8,1.59-4.04,2.38-6.71,2.38h-13.9v-29.45h13.23c2.52,0,4.61,0.72,6.27,2.16
			s2.49,3.39,2.49,5.86c0,1.1-0.22,2.06-0.67,2.89s-0.89,1.41-1.34,1.74c-0.45,0.34-1.01,0.69-1.69,1.06
			C337.45,184.95,339.12,187.3,339.12,190.7z M321.39,174.89v6.79h7.65c0.81,0,1.5-0.34,2.08-1.02c0.58-0.68,0.87-1.46,0.87-2.36
			c0-0.92-0.29-1.72-0.86-2.4c-0.58-0.68-1.27-1.02-2.09-1.02H321.39z M332.28,193.26c0.69-0.79,1.04-1.73,1.04-2.83
			c0-1.1-0.35-2.04-1.04-2.83c-0.69-0.79-1.55-1.18-2.57-1.18h-8.32v8.01h8.32C330.73,194.44,331.59,194.05,332.28,193.26z"/>
		<path d="M367.79,188c0,3.4-1.26,6.26-3.79,8.58c-2.52,2.32-5.51,3.48-8.96,3.48c-3.43,0-6.41-1.16-8.95-3.48
			c-2.54-2.32-3.82-5.18-3.82-8.58c0-3.37,1.27-6.22,3.81-8.54c2.54-2.32,5.52-3.48,8.95-3.48c3.43,0,6.42,1.16,8.95,3.48
			C366.52,181.78,367.79,184.63,367.79,188z M361.98,188c0-1.92-0.67-3.56-2.02-4.93c-1.35-1.37-2.99-2.05-4.92-2.05
			c-1.92,0-3.56,0.69-4.92,2.06c-1.36,1.37-2.04,3.01-2.04,4.92c0,1.94,0.68,3.6,2.04,4.98c1.36,1.37,3,2.06,4.92,2.06
			c1.94,0,3.59-0.69,4.93-2.06C361.31,191.6,361.98,189.94,361.98,188z"/>
		<path d="M376.82,188l-8.28-11.35h6.63l4.91,7.15h0.08l4.91-7.15h6.63L383.45,188l8.24,11.39h-6.63l-4.91-7.19h-0.08l-4.91,7.19
			h-6.63L376.82,188z"/>
	</g>
</g>
</svg>
